<svg width="24" height="24" viewBox="0 0 24 24" fill="none" xmlns="http://www.w3.org/2000/svg">
<path d="M12 2C12.6826 2 13.2969 2.19695 13.9482 2.51367C14.5821 2.82192 15.3141 3.27629 16.2158 3.83594L18.0439 4.9707C18.897 5.50015 19.59 5.92891 20.124 6.33789C20.6733 6.75858 21.1061 7.1954 21.4199 7.76855C21.733 8.34058 21.8709 8.94568 21.9365 9.64355C22.0005 10.3243 22 11.1563 22 12.1865V13.5771C22 15.3366 22.002 16.7398 21.8594 17.8379C21.7229 18.8881 21.4423 19.7734 20.8174 20.4902L20.6875 20.6309C19.9676 21.3754 19.0559 21.701 17.96 21.8535C16.8913 22.0021 15.5271 22 13.8281 22H10.1719C8.47292 22 7.10867 22.0021 6.04004 21.8535C4.94406 21.701 4.03243 21.3754 3.3125 20.6309C2.59633 19.8901 2.2862 18.9579 2.14062 17.8379C1.99796 16.7398 2 15.3366 2 13.5771V12.1865C2 11.1563 1.99951 10.3243 2.06348 9.64355C2.12909 8.94568 2.26697 8.34058 2.58008 7.76855C2.89394 7.1954 3.32674 6.75857 3.87598 6.33789C4.41002 5.92891 5.10298 5.50014 5.95605 4.9707L7.78418 3.83594C8.68592 3.27629 9.41789 2.82193 10.0518 2.51367C10.7031 2.19695 11.3174 2 12 2ZM12 3.71387C11.6698 3.71387 11.3199 3.80276 10.8018 4.05469C10.2657 4.31538 9.62012 4.71379 8.68848 5.29199L6.86035 6.42773C5.9795 6.97442 5.37068 7.35235 4.91895 7.69824C4.48271 8.03233 4.24471 8.29915 4.08398 8.59277C3.92255 8.8878 3.82357 9.24 3.77051 9.80469C3.71583 10.3868 3.71387 11.1247 3.71387 12.1865V13.5771C3.71387 15.3836 3.71679 16.6552 3.8418 17.6172C3.96399 18.5573 4.19004 19.0713 4.54492 19.4385C4.89595 19.8015 5.38124 20.0307 6.27637 20.1553C7.1995 20.2836 8.42292 20.2861 10.1719 20.2861H13.8281C15.5771 20.2861 16.8005 20.2836 17.7236 20.1553C18.6188 20.0307 19.1041 19.8015 19.4551 19.4385C19.81 19.0713 20.036 18.5573 20.1582 17.6172C20.2832 16.6552 20.2861 15.3836 20.2861 13.5771V12.1865C20.2861 11.1247 20.2842 10.3868 20.2295 9.80469C20.1764 9.24 20.0775 8.8878 19.916 8.59277C19.7553 8.29914 19.5173 8.03233 19.0811 7.69824C18.6293 7.35235 18.0205 6.97442 17.1396 6.42773L15.3115 5.29199C14.3799 4.71379 13.7343 4.31538 13.1982 4.05469C12.68 3.80276 12.3302 3.71387 12 3.71387ZM9.27051 15.1543C9.58555 14.9465 10.0611 14.9507 10.3682 15.1553L10.4268 15.1982L10.6182 15.3428C11.0694 15.6558 11.5443 15.7998 12 15.7998C12.5208 15.7998 13.0661 15.6117 13.5732 15.1982C13.8754 14.952 14.3936 14.9328 14.7295 15.1543C15.065 15.3759 15.0921 15.7557 14.79 16.002C14.0604 16.5967 13.1013 17 12 17C10.9673 17 10.0602 16.645 9.34961 16.1104L9.20996 16.002L9.15723 15.9541C8.91261 15.7088 8.95619 15.3621 9.27051 15.1543Z" fill="#151616"/>
</svg>
