<svg width="32" height="32" viewBox="0 0 32 32" fill="none" xmlns="http://www.w3.org/2000/svg">
<g filter="url(#filter0_i_625_44894)">
<path d="M6.15918 5.66651C6.15918 4.00965 7.50233 2.6665 9.15918 2.6665H17.9693C19.8689 2.6665 21.6563 3.56606 22.7881 5.09169L25.0699 8.16758C25.837 9.20159 26.2511 10.4549 26.2511 11.7424V24.9998C26.2511 26.6567 24.908 27.9998 23.2511 27.9998H9.15918C7.50232 27.9998 6.15918 26.6567 6.15918 24.9998V5.66651Z" fill="white"/>
</g>
<path d="M9.15918 3.1665H17.9697C19.7108 3.16664 21.3493 3.99089 22.3867 5.38916L24.668 8.46533C25.3711 9.41317 25.751 10.5625 25.751 11.7427V24.9995C25.751 26.3802 24.6317 27.4995 23.251 27.4995H9.15918C7.77847 27.4995 6.65918 26.3802 6.65918 24.9995V5.6665C6.65918 4.28579 7.77847 3.1665 9.15918 3.1665Z" stroke="#CCD0D3"/>
<g filter="url(#filter1_dd_625_44894)">
<rect x="2.66602" y="11.5" width="17.3333" height="9" rx="3" fill="#03C3CC"/>
<path d="M6.73304 17.5L5.88645 14.5909H6.66344L7.10236 16.4972H7.12651L7.62793 14.5909H8.26145L8.76287 16.5014H8.78702L9.22736 14.5909H10.0029L9.15776 17.5H8.4802L7.95605 15.7358H7.93333L7.40918 17.5H6.73304ZM10.2934 14.5909H11.1642L11.9028 16.392H11.9369L12.6755 14.5909H13.5463V17.5H12.8616V15.7131H12.8374L12.1386 17.4815H11.7011L11.0022 15.7031H10.9781V17.5H10.2934V14.5909ZM14.6453 14.5909L15.2959 16.7216H15.32L15.9706 14.5909H16.7575L15.776 17.5H14.8399L13.8584 14.5909H14.6453Z" fill="white"/>
</g>
<defs>
<filter id="filter0_i_625_44894" x="6.15918" y="2.6665" width="20.2363" height="25.6222" filterUnits="userSpaceOnUse" color-interpolation-filters="sRGB">
<feFlood flood-opacity="0" result="BackgroundImageFix"/>
<feBlend mode="normal" in="SourceGraphic" in2="BackgroundImageFix" result="shape"/>
<feColorMatrix in="SourceAlpha" type="matrix" values="0 0 0 0 0 0 0 0 0 0 0 0 0 0 0 0 0 0 127 0" result="hardAlpha"/>
<feOffset dx="0.144456" dy="0.288913"/>
<feGaussianBlur stdDeviation="0.722282"/>
<feComposite in2="hardAlpha" operator="arithmetic" k2="-1" k3="1"/>
<feColorMatrix type="matrix" values="0 0 0 0 0 0 0 0 0 0 0 0 0 0 0 0 0 0 0.25 0"/>
<feBlend mode="normal" in2="shape" result="effect1_innerShadow_625_44894"/>
</filter>
<filter id="filter1_dd_625_44894" x="0.666016" y="10.5" width="21.333" height="13" filterUnits="userSpaceOnUse" color-interpolation-filters="sRGB">
<feFlood flood-opacity="0" result="BackgroundImageFix"/>
<feColorMatrix in="SourceAlpha" type="matrix" values="0 0 0 0 0 0 0 0 0 0 0 0 0 0 0 0 0 0 127 0" result="hardAlpha"/>
<feOffset/>
<feGaussianBlur stdDeviation="0.5"/>
<feColorMatrix type="matrix" values="0 0 0 0 0 0 0 0 0 0 0 0 0 0 0 0 0 0 0.12 0"/>
<feBlend mode="normal" in2="BackgroundImageFix" result="effect1_dropShadow_625_44894"/>
<feColorMatrix in="SourceAlpha" type="matrix" values="0 0 0 0 0 0 0 0 0 0 0 0 0 0 0 0 0 0 127 0" result="hardAlpha"/>
<feOffset dy="1"/>
<feGaussianBlur stdDeviation="1"/>
<feColorMatrix type="matrix" values="0 0 0 0 0 0 0 0 0 0 0 0 0 0 0 0 0 0 0.16 0"/>
<feBlend mode="normal" in2="effect1_dropShadow_625_44894" result="effect2_dropShadow_625_44894"/>
<feBlend mode="normal" in="SourceGraphic" in2="effect2_dropShadow_625_44894" result="shape"/>
</filter>
</defs>
</svg>
