<svg width="16" height="16" viewBox="0 0 16 16" fill="none" xmlns="http://www.w3.org/2000/svg">
<path d="M11.7857 8.81756L11.7968 8.80696C11.8609 8.74451 11.9099 8.6735 11.9436 8.59797C11.9799 8.51693 12 8.42797 12 8.33464C12 8.15986 11.9286 7.98508 11.7857 7.85173L8.18406 3.86799C7.89831 3.60129 7.43502 3.60129 7.14927 3.86799C6.86352 4.13469 6.86352 4.5671 7.14927 4.8338L9.63185 7.65171L2.73171 7.65171C2.3276 7.65171 2 7.95747 2 8.33464C2 8.71181 2.3276 9.01757 2.73171 9.01757H9.63184L7.14927 11.8355C6.86352 12.1022 6.86352 12.5346 7.14927 12.8013C7.43502 13.068 7.89831 13.068 8.18406 12.8013L11.7857 8.81756Z" fill="#636567"/>
<path d="M14 12.3346C14 12.7028 13.7015 13.0013 13.3333 13.0013C12.9651 13.0013 12.6667 12.7028 12.6667 12.3346L12.6667 4.33464C12.6667 3.96645 12.9651 3.66797 13.3333 3.66797C13.7015 3.66797 14 3.96645 14 4.33464V12.3346Z" fill="#636567"/>
</svg>
